<svg id="Capa_1" enable-background="new 0 0 512 512" height="512" viewBox="0 0 512 512" width="512" xmlns="http://www.w3.org/2000/svg"><g><path d="m0 128.531v254.938h512v-254.938zm304.734 48.735h30v30h-30zm0 63.734h30v30h-30zm-63.734-63.734h30v30h-30zm0 63.734h30v30h-30zm-63.734-63.734h30v30h-30zm0 63.734h30v30h-30zm-63.735-63.734h30v30h-30zm0 63.734h30v30h-30zm-33.734 93.734h-30v-30h30zm0-63.734h-30v-30h30zm0-63.734h-30v-30h30zm255.871 127.468h-223.07v-30h223.07zm62.801 0h-30v-30h30zm0-63.734h-30v-30h30zm63.734 63.734h-30v-30h30zm0-63.734h-30v-30h30zm.934-63.734h-95.602v-30h95.602z"/></g></svg>